<svg xmlns="http://www.w3.org/2000/svg" width="33.02" height="33.018" viewBox="0 0 33.02 33.018">
  <path id="Intersection_1" data-name="Intersection 1" d="M-3953.344,33.5v-1.15h-3.137V30.791h-1.56V29.225h3.117V27.659h-7.828v1.555h-3.136V26.083h0l0,0v0h1.555V24.511h-1.555l0-1.564h-1.558V21.384h-4.7V19.817h4.687V7.266h1.574v4.694h1.565V8.838h1.571V11.97h1.568v1.563h7.838V15.1h1.57V16.67h-1.556v1.572h1.556V21.38h1.568v3.128h-1.56v3.142h1.558V29.21h2.714v1.57h-4.276V33.5Zm-7.834-7.423h1.551V24.521h-1.551Zm4.7,0h3.125V24.515h-3.125Zm-1.562-1.565h1.557v-1.56h-1.557Zm-7.847-1.568h3.134v-1.56h1.572v1.553h1.565V19.81h0l0,0v0h.156l4.545,0V18.24h-3.134V15.109h-4.7v1.568h-3.126v3.138h1.551v1.567h-1.559Zm10.976-1.572h1.557V19.81h-1.557Zm-1.561-4.7h1.551V15.111h-1.551Zm-1.572,16.831V32.356h1.561V33.5Zm-9.407,0V29.217h1.558v1.561h1.565v1.566h1.566V33.5Zm-9.547,0a2.5,2.5,0,0,1-2.5-2.5V22.955h10.465V33.5Zm-1.433-1.156h7.831V24.521h-7.831Zm29.8.011h.735a2.515,2.515,0,0,1-.735.738Zm-7.848,0h0v0h0ZM-3956.481,32.356Zm-4.7-.011V30.787h1.551v1.557Zm-15.679-1.562V26.089h4.688v4.694Zm10.97-1.565h-.006v0l.006,0,0,0h0ZM-3965.888,29.217Zm15.675-1.566v0h.006v0Zm.006,0V26.091h1.56v1.556Zm-15.687-1.568h-1.554V24.515h1.554v1.564h.006l-.006,0ZM-3965.888,26.079Zm0-1.564h-.006v0l.006,0,0,0h0ZM-3965.888,24.515Zm17.255-.009V22.953h1.134v1.553Zm-1.578-3.125v-.006h0v.006Zm0-.006V19.817h1.56v1.557Zm-29.292-.006V18.249h1.062V19.8h3.139V15.107h0v0h3.133v1.561h3.129v1.568h-4.693v3.132Zm19.879-1.56h-1.557V18.246h1.557v1.562h0l0,0ZM-3959.617,19.808Zm7.839-1.566h0v0h0Zm0,0V16.676h0V16.67h0l0,0v0h1.557V18.24Zm3.13,0V15.1h-1.558V13.54h2.706v4.7Zm-30.852-1.572V13.542h4.2V15.1h-3.127v1.56Zm7.334-1.557v0h0v0Zm-3.136,0h0l0,0Zm3.14,0V13.546h3.128V15.1ZM-3975.3,15.1Zm14.111-3.133v0h0v0Zm0,0V10.41h1.561v1.557Zm-18.314,0V4a2.5,2.5,0,0,1,2.5-2.5h7.965V11.967Zm1.071-1.574h7.827V2.565h-7.827Zm20.385,1.568V1.5H-3950a2.5,2.5,0,0,1,2.5,2.5v7.961Zm1.568-1.564h7.825V2.568h-7.825Zm1.568-1.572V4.131h4.689V8.825Zm-6.275,0V7.268h-1.568V5.705h-1.57V7.264h-1.568V4.135h-1.562V1.5h7.824V4.121h-1.551v1.57h1.551V8.825Zm-3.135-4.7h1.558V2.565h-1.558Zm-12.542,4.7V4.135h4.692v4.69Zm10.966-1.559v0h0v0Z" transform="translate(3980 -1)" fill="#fff" stroke="rgba(0,0,0,0)" stroke-miterlimit="10" stroke-width="1"/>
</svg>
