<svg xmlns="http://www.w3.org/2000/svg" xmlns:xlink="http://www.w3.org/1999/xlink" width="178.668" height="70.642" viewBox="0 0 178.668 70.642">
  <defs>
    <linearGradient id="linear-gradient" x1="2.101" y1="-0.503" x2="-4.109" y2="2.174" gradientUnits="objectBoundingBox">
      <stop offset="0" stop-color="#b70c12"/>
      <stop offset="1" stop-color="#f93d47"/>
    </linearGradient>
  </defs>
  <g id="Group_180" data-name="Group 180" transform="translate(-594 -90)">
    <g id="Group_143" data-name="Group 143" transform="translate(649.621 90)">
      <path id="Path_599" data-name="Path 599" d="M5147.9,145.628a4.41,4.41,0,0,1-4.405,4.405h-.678a4.41,4.41,0,0,1-4.4-4.405v-7.84h-4.27v7.84a8.684,8.684,0,0,0,8.674,8.674h.678a8.684,8.684,0,0,0,8.675-8.674v-7.84h-4.27Z" transform="translate(-5117.538 -103.069)" fill="url(#linear-gradient)"/>
      <path id="Path_600" data-name="Path 600" d="M5162.993,116.866h-7.929v4.269h7.929a4.409,4.409,0,0,1,4.4,4.4v.678a4.41,4.41,0,0,1-4.4,4.405h-7.929v4.269h7.929a8.684,8.684,0,0,0,8.674-8.674v-.678A8.684,8.684,0,0,0,5162.993,116.866Z" transform="translate(-5120.435 -100.174)" fill="url(#linear-gradient)"/>
      <path id="Path_601" data-name="Path 601" d="M5140.825,97.492h-.677a8.683,8.683,0,0,0-8.674,8.674v8.018h-7.93a8.683,8.683,0,0,0-8.674,8.674v.678a8.683,8.683,0,0,0,8.674,8.674h21.687v-4.269h-21.687a4.411,4.411,0,0,1-4.405-4.405v-.678a4.411,4.411,0,0,1,4.405-4.4h12.2V106.166a4.411,4.411,0,0,1,4.405-4.405h.677a4.412,4.412,0,0,1,4.406,4.405v21.775h4.269V106.166A8.684,8.684,0,0,0,5140.825,97.492Z" transform="translate(-5114.871 -97.492)" fill="url(#linear-gradient)"/>
    </g>
    <g id="Group_144" data-name="Group 144" transform="translate(594 132.719)">
      <path id="Path_602" data-name="Path 602" d="M5050.314,175l13.031-27.923h3.314L5079.8,175h-7.334l-1.713-3.649h-11.431L5057.649,175Zm11.877-9.829h5.7l-2.83-6.143Z" transform="translate(-5050.314 -147.074)" fill="url(#linear-gradient)"/>
      <path id="Path_603" data-name="Path 603" d="M5088.82,147.074h7.334V175h-7.334Z" transform="translate(-5055.645 -147.074)" fill="url(#linear-gradient)"/>
      <path id="Path_604" data-name="Path 604" d="M5103.859,147.074h10.349a13.962,13.962,0,1,1,0,27.923h-10.349Zm7.3,20.7h3.089a6.609,6.609,0,1,0,0-13.218h-3.089Z" transform="translate(-5057.726 -147.074)" fill="url(#linear-gradient)"/>
    </g>
    <g id="Group_145" data-name="Group 145" transform="translate(688.933 135.032)">
      <path id="Path_605" data-name="Path 605" d="M5169.687,149.846v8.847h-.9v-7.077l-3.476,5.953h-.442l-3.476-5.915v7.039h-.9v-8.847h.771l3.843,6.559,3.8-6.559Z" transform="translate(-5160.499 -149.77)" fill="url(#linear-gradient)"/>
      <path id="Path_606" data-name="Path 606" d="M5185.625,157.884v.809h-6.255v-8.847h6.066v.809H5180.3V153.8h4.575v.8H5180.3v3.285Z" transform="translate(-5163.111 -149.77)" fill="url(#linear-gradient)"/>
      <path id="Path_607" data-name="Path 607" d="M5194.047,149.846h3.6c2.83,0,4.739,1.82,4.739,4.423s-1.909,4.423-4.739,4.423h-3.6Zm3.551,8.038a3.623,3.623,0,1,0,0-7.229h-2.615v7.229Z" transform="translate(-5165.143 -149.77)" fill="url(#linear-gradient)"/>
      <path id="Path_608" data-name="Path 608" d="M5211.026,149.846h.935v8.847h-.935Z" transform="translate(-5167.492 -149.77)" fill="url(#linear-gradient)"/>
      <path id="Path_609" data-name="Path 609" d="M5219.413,154.257a4.442,4.442,0,0,1,4.638-4.5,4.281,4.281,0,0,1,3.234,1.289l-.593.594a3.507,3.507,0,0,0-2.616-1.049,3.666,3.666,0,1,0,0,7.33,3.473,3.473,0,0,0,2.616-1.061l.593.594a4.3,4.3,0,0,1-3.247,1.3A4.438,4.438,0,0,1,5219.413,154.257Z" transform="translate(-5168.653 -149.758)" fill="url(#linear-gradient)"/>
      <path id="Path_610" data-name="Path 610" d="M5240.789,156.329h-4.929l-1.062,2.363h-.973l4.043-8.847h.924l4.045,8.847h-.986Zm-.341-.758-2.124-4.752-2.122,4.752Z" transform="translate(-5170.649 -149.77)" fill="url(#linear-gradient)"/>
      <path id="Path_611" data-name="Path 611" d="M5250.85,149.846h.936v8.038h4.954v.809h-5.89Z" transform="translate(-5173.005 -149.77)" fill="url(#linear-gradient)"/>
      <path id="Path_612" data-name="Path 612" d="M5166.54,176.289l-2.022-2.844a6.361,6.361,0,0,1-.708.038h-2.376v2.806h-.935v-8.848h3.311c2.25,0,3.614,1.137,3.614,3.034a2.743,2.743,0,0,1-2.021,2.78l2.162,3.034Zm-.051-5.814c0-1.416-.935-2.225-2.7-2.225h-2.352v4.436h2.352C5165.555,172.686,5166.489,171.865,5166.489,170.475Z" transform="translate(-5160.499 -152.206)" fill="url(#linear-gradient)"/>
      <path id="Path_613" data-name="Path 613" d="M5182.224,175.48v.809h-6.256v-8.848h6.066v.809H5176.9V171.4h4.576v.8H5176.9v3.286Z" transform="translate(-5162.64 -152.206)" fill="url(#linear-gradient)"/>
      <path id="Path_614" data-name="Path 614" d="M5189.677,171.853a4.442,4.442,0,0,1,4.638-4.5,4.287,4.287,0,0,1,3.236,1.289l-.594.595a3.5,3.5,0,0,0-2.616-1.049,3.666,3.666,0,1,0,0,7.33,3.468,3.468,0,0,0,2.616-1.061l.594.594a4.3,4.3,0,0,1-3.248,1.3A4.438,4.438,0,0,1,5189.677,171.853Z" transform="translate(-5164.538 -152.193)" fill="url(#linear-gradient)"/>
      <path id="Path_615" data-name="Path 615" d="M5204.867,171.853a4.647,4.647,0,1,1,4.651,4.5A4.453,4.453,0,0,1,5204.867,171.853Zm8.354,0a3.716,3.716,0,1,0-3.7,3.664A3.583,3.583,0,0,0,5213.221,171.853Z" transform="translate(-5166.64 -152.193)" fill="url(#linear-gradient)"/>
      <path id="Path_616" data-name="Path 616" d="M5228.989,176.289l-2.023-2.844a6.342,6.342,0,0,1-.708.038h-2.375v2.806h-.936v-8.848h3.311c2.25,0,3.616,1.137,3.616,3.034a2.742,2.742,0,0,1-2.022,2.78l2.161,3.034Zm-.051-5.814c0-1.416-.935-2.225-2.7-2.225h-2.35v4.436h2.35C5228,172.686,5228.938,171.865,5228.938,170.475Z" transform="translate(-5169.143 -152.206)" fill="url(#linear-gradient)"/>
      <path id="Path_617" data-name="Path 617" d="M5238.416,167.441h3.6c2.83,0,4.739,1.82,4.739,4.424s-1.909,4.423-4.739,4.423h-3.6Zm3.551,8.039a3.623,3.623,0,1,0,0-7.23h-2.617v7.23Z" transform="translate(-5171.283 -152.206)" fill="url(#linear-gradient)"/>
    </g>
    <g id="Group_146" data-name="Group 146" transform="translate(670.593 144.507)">
      <path id="Path_618" data-name="Path 618" d="M5143.856,170.044a4.644,4.644,0,1,1,4.645-4.644A4.649,4.649,0,0,1,5143.856,170.044Z" transform="translate(-5139.213 -160.756)" fill="url(#linear-gradient)"/>
    </g>
  </g>
</svg>
