<svg id="TextArea" xmlns="http://www.w3.org/2000/svg" viewBox="0 0 207.84 207.84"><defs><style>.cls-1{fill:#b70c12;}</style></defs><title>MedicalRecordQR</title><path class="cls-1" d="M81.64,17.89a1.76,1.76,0,0,0,1.76-1.76v1.76Z" transform="translate(-8.58 -9.58)"/><path class="cls-1" d="M91.72,16.13V11.35A1.77,1.77,0,0,0,90,9.58H85.17a1.77,1.77,0,0,0-1.77,1.77h0v6.54h8.32Z" transform="translate(-8.58 -9.58)"/><path class="cls-1" d="M123.2,17.89A1.76,1.76,0,0,0,125,16.13v1.76Z" transform="translate(-8.58 -9.58)"/><path class="cls-1" d="M133.28,16.13V11.35a1.76,1.76,0,0,0-1.76-1.77h-4.78A1.77,1.77,0,0,0,125,11.35h0v6.54h8.31Z" transform="translate(-8.58 -9.58)"/><rect class="cls-1" x="133.02" width="8.31" height="8.31" rx="1.77"/><path class="cls-1" d="M81.64,17.89H76.86a1.77,1.77,0,0,0-1.77,1.77h0v4.78a1.77,1.77,0,0,0,1.77,1.77H83.4V17.89Z" transform="translate(-8.58 -9.58)"/><rect class="cls-1" x="74.82" y="8.31" width="8.31" height="8.31"/><path class="cls-1" d="M98.26,26.21A1.77,1.77,0,0,0,100,24.44v1.77Z" transform="translate(-8.58 -9.58)"/><path class="cls-1" d="M93.48,26.21a1.76,1.76,0,0,1-1.76-1.77v1.77Z" transform="translate(-8.58 -9.58)"/><path class="cls-1" d="M101.8,17.89A1.77,1.77,0,0,0,100,19.66h0v6.55h8.31V17.89Z" transform="translate(-8.58 -9.58)"/><rect class="cls-1" x="99.76" y="8.31" width="8.31" height="8.31"/><rect class="cls-1" x="108.08" y="8.31" width="8.31" height="8.31"/><path class="cls-1" d="M133.28,24.44a1.76,1.76,0,0,1-1.76,1.77H125V17.89h8.31Z" transform="translate(-8.58 -9.58)"/><path class="cls-1" d="M83.4,28V26.21H81.64A1.76,1.76,0,0,1,83.4,28Z" transform="translate(-8.58 -9.58)"/><path class="cls-1" d="M81.64,34.52a1.76,1.76,0,0,0,1.76-1.77v1.77Z" transform="translate(-8.58 -9.58)"/><rect class="cls-1" x="74.82" y="16.63" width="8.31" height="8.31"/><rect class="cls-1" x="83.14" y="16.63" width="8.31" height="8.31"/><rect class="cls-1" x="91.45" y="16.63" width="8.31" height="8.31"/><path class="cls-1" d="M110.11,26.21h-1.77V28a1.76,1.76,0,0,1,1.77-1.76Z" transform="translate(-8.58 -9.58)"/><path class="cls-1" d="M81.64,34.52H76.86a1.77,1.77,0,0,0-1.77,1.77h0v4.78a1.76,1.76,0,0,0,1.77,1.76H83.4V34.52Z" transform="translate(-8.58 -9.58)"/><path class="cls-1" d="M91.72,41.07A1.76,1.76,0,0,1,90,42.83H83.4V34.52h8.32Z" transform="translate(-8.58 -9.58)"/><path class="cls-1" d="M93.48,34.52H91.72v1.77a1.76,1.76,0,0,1,1.76-1.77Z" transform="translate(-8.58 -9.58)"/><path class="cls-1" d="M100,36.29V34.52H98.26A1.77,1.77,0,0,1,100,36.29Z" transform="translate(-8.58 -9.58)"/><path class="cls-1" d="M100,41.07a1.76,1.76,0,0,0,1.77,1.76h4.78a1.76,1.76,0,0,0,1.76-1.76V34.52H100Z" transform="translate(-8.58 -9.58)"/><rect class="cls-1" x="108.08" y="24.94" width="8.31" height="8.31" rx="1.77"/><path class="cls-1" d="M135.05,34.52a1.77,1.77,0,0,0-1.77,1.77h0v6.54h8.32V34.52Z" transform="translate(-8.58 -9.58)"/><path class="cls-1" d="M148.14,34.52a1.77,1.77,0,0,1,1.77,1.77v6.54H141.6V34.52Z" transform="translate(-8.58 -9.58)"/><path class="cls-1" d="M100,49.38V44.6a1.77,1.77,0,0,0-1.77-1.77H93.48a1.77,1.77,0,0,0-1.76,1.77h0v6.55H100Z" transform="translate(-8.58 -9.58)"/><rect class="cls-1" x="99.76" y="33.25" width="8.31" height="8.31" rx="1.77"/><path class="cls-1" d="M131.52,51.15a1.76,1.76,0,0,0,1.76-1.77v1.77Z" transform="translate(-8.58 -9.58)"/><rect class="cls-1" x="124.7" y="33.25" width="8.31" height="8.31"/><path class="cls-1" d="M149.91,49.38a1.77,1.77,0,0,1-1.77,1.77H141.6V42.83h8.31Z" transform="translate(-8.58 -9.58)"/><path class="cls-1" d="M83.4,57.69V52.91a1.76,1.76,0,0,0-1.76-1.76H76.86a1.76,1.76,0,0,0-1.77,1.76h0v6.55H83.4Z" transform="translate(-8.58 -9.58)"/><rect class="cls-1" x="83.14" y="41.57" width="8.31" height="8.31"/><path class="cls-1" d="M123.2,51.15h-4.78a1.76,1.76,0,0,0-1.76,1.76h0v4.78a1.76,1.76,0,0,0,1.76,1.77H125V51.15Z" transform="translate(-8.58 -9.58)"/><rect class="cls-1" x="116.39" y="41.57" width="8.31" height="8.31"/><path class="cls-1" d="M141.6,57.69a1.77,1.77,0,0,1-1.77,1.77h-6.55V51.15h8.32Z" transform="translate(-8.58 -9.58)"/><path class="cls-1" d="M143.36,51.15H141.6v1.76a1.76,1.76,0,0,1,1.76-1.76Z" transform="translate(-8.58 -9.58)"/><path class="cls-1" d="M75.09,66a1.77,1.77,0,0,0,1.77,1.77h4.78A1.77,1.77,0,0,0,83.4,66V59.46H75.09Z" transform="translate(-8.58 -9.58)"/><path class="cls-1" d="M91.72,66a1.77,1.77,0,0,0,1.76,1.77h4.78A1.77,1.77,0,0,0,100,66V59.46H91.72Z" transform="translate(-8.58 -9.58)"/><path class="cls-1" d="M116.66,66V61.23a1.77,1.77,0,0,0-1.77-1.77h-4.78a1.77,1.77,0,0,0-1.77,1.77h0v6.55h8.32Z" transform="translate(-8.58 -9.58)"/><path class="cls-1" d="M125,61.23V59.46H123.2A1.77,1.77,0,0,1,125,61.23Z" transform="translate(-8.58 -9.58)"/><path class="cls-1" d="M125,66a1.77,1.77,0,0,0,1.77,1.77h4.78A1.77,1.77,0,0,0,133.28,66V59.46H125Z" transform="translate(-8.58 -9.58)"/><path class="cls-1" d="M135.05,59.46h-1.77v1.77a1.77,1.77,0,0,1,1.77-1.77Z" transform="translate(-8.58 -9.58)"/><path class="cls-1" d="M149.91,66V61.23a1.77,1.77,0,0,0-1.77-1.77h-4.78a1.76,1.76,0,0,0-1.76,1.77h0v6.55h8.31Z" transform="translate(-8.58 -9.58)"/><rect class="cls-1" x="99.76" y="58.2" width="8.31" height="8.31"/><path class="cls-1" d="M118.42,76.09a1.76,1.76,0,0,1-1.76-1.77v1.77Z" transform="translate(-8.58 -9.58)"/><path class="cls-1" d="M141.6,74.32a1.76,1.76,0,0,0,1.76,1.77h4.78a1.77,1.77,0,0,0,1.77-1.77V67.78H141.6Z" transform="translate(-8.58 -9.58)"/><path class="cls-1" d="M10.35,76.09a1.77,1.77,0,0,0-1.77,1.77h0V84.4h8.31V76.09Z" transform="translate(-8.58 -9.58)"/><rect class="cls-1" x="8.31" y="66.51" width="8.31" height="8.31"/><rect class="cls-1" x="16.63" y="66.51" width="8.31" height="8.31"/><rect class="cls-1" x="24.94" y="66.51" width="8.31" height="8.31"/><path class="cls-1" d="M43.6,84.4h4.78a1.76,1.76,0,0,0,1.77-1.76V77.86a1.77,1.77,0,0,0-1.77-1.77H41.83V84.4Z" transform="translate(-8.58 -9.58)"/><path class="cls-1" d="M65,76.09H60.23a1.77,1.77,0,0,0-1.77,1.77h0v4.78a1.76,1.76,0,0,0,1.77,1.76h6.55V76.09Z" transform="translate(-8.58 -9.58)"/><rect class="cls-1" x="58.2" y="66.51" width="8.31" height="8.31"/><rect class="cls-1" x="66.51" y="66.51" width="8.31" height="8.31"/><rect class="cls-1" x="74.82" y="66.51" width="8.31" height="8.31"/><path class="cls-1" d="M93.48,84.4h4.78A1.76,1.76,0,0,0,100,82.64V77.86a1.77,1.77,0,0,0-1.77-1.77H91.72V84.4Z" transform="translate(-8.58 -9.58)"/><path class="cls-1" d="M108.34,82.64a1.76,1.76,0,0,0,1.77,1.76h6.55V76.09h-8.32Z" transform="translate(-8.58 -9.58)"/><path class="cls-1" d="M118.42,84.4h4.78A1.76,1.76,0,0,0,125,82.64V77.86a1.77,1.77,0,0,0-1.77-1.77h-6.54V84.4Z" transform="translate(-8.58 -9.58)"/><path class="cls-1" d="M141.6,82.64V77.86a1.77,1.77,0,0,0-1.77-1.77h-4.78a1.77,1.77,0,0,0-1.77,1.77h0V84.4h8.32Z" transform="translate(-8.58 -9.58)"/><path class="cls-1" d="M148.14,84.4a1.76,1.76,0,0,0,1.77-1.76V84.4Z" transform="translate(-8.58 -9.58)"/><path class="cls-1" d="M143.36,84.4a1.76,1.76,0,0,1-1.76-1.76V84.4Z" transform="translate(-8.58 -9.58)"/><path class="cls-1" d="M158.22,82.64V77.86a1.76,1.76,0,0,0-1.76-1.77h-4.78a1.77,1.77,0,0,0-1.77,1.77h0V84.4h8.31Z" transform="translate(-8.58 -9.58)"/><path class="cls-1" d="M174.85,82.64V77.86a1.76,1.76,0,0,0-1.76-1.77h-4.78a1.77,1.77,0,0,0-1.77,1.77h0V84.4h8.31Z" transform="translate(-8.58 -9.58)"/><path class="cls-1" d="M176.62,84.4a1.76,1.76,0,0,1-1.77-1.76V84.4Z" transform="translate(-8.58 -9.58)"/><rect class="cls-1" x="174.59" y="66.51" width="8.31" height="8.31" rx="1.77"/><rect class="cls-1" x="191.21" y="66.51" width="8.31" height="8.31" rx="1.77"/><path class="cls-1" d="M8.58,91a1.77,1.77,0,0,0,1.77,1.77h6.54V84.4H8.58Z" transform="translate(-8.58 -9.58)"/><rect class="cls-1" x="8.31" y="74.82" width="8.31" height="8.31"/><rect class="cls-1" x="16.63" y="74.82" width="8.31" height="8.31"/><path class="cls-1" d="M41.83,91a1.76,1.76,0,0,1-1.76,1.77H33.52V84.4h8.31Z" transform="translate(-8.58 -9.58)"/><path class="cls-1" d="M43.6,84.4H41.83v1.77A1.77,1.77,0,0,1,43.6,84.4Z" transform="translate(-8.58 -9.58)"/><path class="cls-1" d="M66.78,86.17V84.4H65A1.77,1.77,0,0,1,66.78,86.17Z" transform="translate(-8.58 -9.58)"/><path class="cls-1" d="M65,92.72A1.77,1.77,0,0,0,66.78,91v1.77Z" transform="translate(-8.58 -9.58)"/><rect class="cls-1" x="58.2" y="74.82" width="8.31" height="8.31"/><path class="cls-1" d="M76.86,84.4H75.09v1.77a1.77,1.77,0,0,1,1.77-1.77Z" transform="translate(-8.58 -9.58)"/><path class="cls-1" d="M83.4,86.17V84.4H81.64A1.76,1.76,0,0,1,83.4,86.17Z" transform="translate(-8.58 -9.58)"/><path class="cls-1" d="M81.64,92.72A1.76,1.76,0,0,0,83.4,91v1.77Z" transform="translate(-8.58 -9.58)"/><path class="cls-1" d="M76.86,92.72A1.77,1.77,0,0,1,75.09,91v1.77Z" transform="translate(-8.58 -9.58)"/><rect class="cls-1" x="74.82" y="74.82" width="8.31" height="8.31"/><path class="cls-1" d="M93.48,84.4H91.72v1.77a1.76,1.76,0,0,1,1.76-1.77Z" transform="translate(-8.58 -9.58)"/><path class="cls-1" d="M131.52,92.72A1.76,1.76,0,0,0,133.28,91v1.77Z" transform="translate(-8.58 -9.58)"/><rect class="cls-1" x="124.7" y="74.82" width="8.31" height="8.31"/><rect class="cls-1" x="133.02" y="74.82" width="8.31" height="8.31"/><rect class="cls-1" x="141.33" y="74.82" width="8.31" height="8.31"/><path class="cls-1" d="M160,92.72A1.77,1.77,0,0,1,158.22,91v1.77Z" transform="translate(-8.58 -9.58)"/><path class="cls-1" d="M166.54,91a1.77,1.77,0,0,0,1.77,1.77h6.54V84.4h-8.31Z" transform="translate(-8.58 -9.58)"/><path class="cls-1" d="M181.4,84.4a1.77,1.77,0,0,1,1.77,1.77v6.55h-8.32V84.4Z" transform="translate(-8.58 -9.58)"/><rect class="cls-1" x="199.53" y="74.82" width="8.31" height="8.31" rx="1.77"/><path class="cls-1" d="M25.21,94.48V92.72H23.44A1.76,1.76,0,0,1,25.21,94.48Z" transform="translate(-8.58 -9.58)"/><path class="cls-1" d="M23.44,101a1.77,1.77,0,0,0,1.77-1.77V101Z" transform="translate(-8.58 -9.58)"/><rect class="cls-1" x="16.63" y="83.14" width="8.31" height="8.31"/><path class="cls-1" d="M35.29,92.72H33.52v1.76a1.76,1.76,0,0,1,1.77-1.76Z" transform="translate(-8.58 -9.58)"/><path class="cls-1" d="M35.29,101a1.77,1.77,0,0,1-1.77-1.77V101Z" transform="translate(-8.58 -9.58)"/><rect class="cls-1" x="33.25" y="83.14" width="8.31" height="8.31" rx="1.77"/><path class="cls-1" d="M65,92.72H60.23a1.76,1.76,0,0,0-1.77,1.76h0v4.78A1.77,1.77,0,0,0,60.23,101h6.55V92.72Z" transform="translate(-8.58 -9.58)"/><rect class="cls-1" x="58.2" y="83.14" width="8.31" height="8.31"/><rect class="cls-1" x="66.51" y="83.14" width="8.31" height="8.31"/><rect class="cls-1" x="74.82" y="83.14" width="8.31" height="8.31"/><path class="cls-1" d="M98.26,101A1.77,1.77,0,0,0,100,99.26V101Z" transform="translate(-8.58 -9.58)"/><path class="cls-1" d="M93.48,101a1.76,1.76,0,0,1-1.76-1.77V101Z" transform="translate(-8.58 -9.58)"/><path class="cls-1" d="M101.8,92.72A1.76,1.76,0,0,0,100,94.48h0V101h8.31V92.72Z" transform="translate(-8.58 -9.58)"/><path class="cls-1" d="M110.11,101h4.78a1.77,1.77,0,0,0,1.77-1.77V94.48a1.76,1.76,0,0,0-1.77-1.76h-6.55V101Z" transform="translate(-8.58 -9.58)"/><path class="cls-1" d="M131.52,92.72h-4.78A1.76,1.76,0,0,0,125,94.48h0v4.78a1.77,1.77,0,0,0,1.77,1.77h6.54V92.72Z" transform="translate(-8.58 -9.58)"/><path class="cls-1" d="M141.6,99.26a1.77,1.77,0,0,1-1.77,1.77h-6.55V92.72h8.32Z" transform="translate(-8.58 -9.58)"/><path class="cls-1" d="M143.36,92.72H141.6v1.76a1.76,1.76,0,0,1,1.76-1.76Z" transform="translate(-8.58 -9.58)"/><path class="cls-1" d="M149.91,94.48V92.72h-1.77A1.76,1.76,0,0,1,149.91,94.48Z" transform="translate(-8.58 -9.58)"/><path class="cls-1" d="M148.14,101a1.77,1.77,0,0,0,1.77-1.77V101Z" transform="translate(-8.58 -9.58)"/><rect class="cls-1" x="141.33" y="83.14" width="8.31" height="8.31"/><path class="cls-1" d="M160,101h4.78a1.77,1.77,0,0,0,1.77-1.77V94.48a1.76,1.76,0,0,0-1.77-1.76h-6.55V101Z" transform="translate(-8.58 -9.58)"/><path class="cls-1" d="M174.85,94.48V92.72h-1.76A1.76,1.76,0,0,1,174.85,94.48Z" transform="translate(-8.58 -9.58)"/><path class="cls-1" d="M174.85,99.26a1.77,1.77,0,0,0,1.77,1.77h4.78a1.77,1.77,0,0,0,1.77-1.77V92.72h-8.32Z" transform="translate(-8.58 -9.58)"/><rect class="cls-1" x="182.9" y="83.14" width="8.31" height="8.31" rx="1.77"/><path class="cls-1" d="M15.13,101H10.35a1.77,1.77,0,0,0-1.77,1.77h0v4.78a1.76,1.76,0,0,0,1.77,1.76h6.54V101Z" transform="translate(-8.58 -9.58)"/><rect class="cls-1" x="8.31" y="91.45" width="8.31" height="8.31"/><rect class="cls-1" x="16.63" y="91.45" width="8.31" height="8.31"/><path class="cls-1" d="M35.29,109.34h4.78a1.76,1.76,0,0,0,1.76-1.76V102.8A1.76,1.76,0,0,0,40.07,101H33.52v8.31Z" transform="translate(-8.58 -9.58)"/><path class="cls-1" d="M48.38,109.34a1.76,1.76,0,0,0,1.77-1.76v1.76Z" transform="translate(-8.58 -9.58)"/><path class="cls-1" d="M58.46,107.58V102.8A1.77,1.77,0,0,0,56.69,101H51.91a1.76,1.76,0,0,0-1.76,1.77h0v6.54h8.31Z" transform="translate(-8.58 -9.58)"/><path class="cls-1" d="M60.23,109.34a1.76,1.76,0,0,1-1.77-1.76v1.76Z" transform="translate(-8.58 -9.58)"/><path class="cls-1" d="M75.09,102.8V101H73.32A1.77,1.77,0,0,1,75.09,102.8Z" transform="translate(-8.58 -9.58)"/><path class="cls-1" d="M75.09,107.58a1.76,1.76,0,0,0,1.77,1.76H83.4V101H75.09Z" transform="translate(-8.58 -9.58)"/><rect class="cls-1" x="74.82" y="91.45" width="8.31" height="8.31"/><rect class="cls-1" x="83.14" y="91.45" width="8.31" height="8.31"/><rect class="cls-1" x="91.45" y="91.45" width="8.31" height="8.31"/><path class="cls-1" d="M110.11,101h-1.77v1.77a1.77,1.77,0,0,1,1.77-1.77Z" transform="translate(-8.58 -9.58)"/><rect class="cls-1" x="108.08" y="91.45" width="8.31" height="8.31" rx="1.77"/><path class="cls-1" d="M148.14,101h-4.78a1.76,1.76,0,0,0-1.76,1.77h0v4.78a1.76,1.76,0,0,0,1.76,1.76h6.55V101Z" transform="translate(-8.58 -9.58)"/><path class="cls-1" d="M158.22,107.58a1.76,1.76,0,0,1-1.76,1.76h-6.55V101h8.31Z" transform="translate(-8.58 -9.58)"/><path class="cls-1" d="M160,101h-1.77v1.77A1.77,1.77,0,0,1,160,101Z" transform="translate(-8.58 -9.58)"/><path class="cls-1" d="M16.89,111.11v-1.77H15.13A1.76,1.76,0,0,1,16.89,111.11Z" transform="translate(-8.58 -9.58)"/><path class="cls-1" d="M15.13,117.66a1.76,1.76,0,0,0,1.76-1.77v1.77Z" transform="translate(-8.58 -9.58)"/><rect class="cls-1" x="8.31" y="99.76" width="8.31" height="8.31"/><rect class="cls-1" x="16.63" y="99.76" width="8.31" height="8.31"/><path class="cls-1" d="M35.29,109.34H33.52v1.77a1.77,1.77,0,0,1,1.77-1.77Z" transform="translate(-8.58 -9.58)"/><path class="cls-1" d="M40.07,117.66a1.76,1.76,0,0,0,1.76-1.77v1.77Z" transform="translate(-8.58 -9.58)"/><path class="cls-1" d="M35.29,117.66a1.77,1.77,0,0,1-1.77-1.77v1.77Z" transform="translate(-8.58 -9.58)"/><path class="cls-1" d="M43.6,109.34a1.77,1.77,0,0,0-1.77,1.77h0v6.55h8.32v-8.32Z" transform="translate(-8.58 -9.58)"/><rect class="cls-1" x="41.57" y="99.76" width="8.31" height="8.31"/><rect class="cls-1" x="49.88" y="99.76" width="8.31" height="8.31"/><path class="cls-1" d="M73.32,109.34a1.77,1.77,0,0,1,1.77,1.77v6.55H66.78v-8.32Z" transform="translate(-8.58 -9.58)"/><path class="cls-1" d="M83.4,111.11v-1.77H81.64A1.76,1.76,0,0,1,83.4,111.11Z" transform="translate(-8.58 -9.58)"/><path class="cls-1" d="M76.86,117.66a1.77,1.77,0,0,1-1.77-1.77v1.77Z" transform="translate(-8.58 -9.58)"/><path class="cls-1" d="M83.4,115.89a1.77,1.77,0,0,0,1.77,1.77H90a1.77,1.77,0,0,0,1.77-1.77v-6.55H83.4Z" transform="translate(-8.58 -9.58)"/><path class="cls-1" d="M93.48,109.34H91.72v1.77a1.76,1.76,0,0,1,1.76-1.77Z" transform="translate(-8.58 -9.58)"/><path class="cls-1" d="M100,111.11v-1.77H98.26A1.77,1.77,0,0,1,100,111.11Z" transform="translate(-8.58 -9.58)"/><path class="cls-1" d="M100,115.89a1.77,1.77,0,0,0,1.77,1.77h4.78a1.76,1.76,0,0,0,1.76-1.77v-6.55H100Z" transform="translate(-8.58 -9.58)"/><path class="cls-1" d="M126.74,109.34a1.77,1.77,0,0,0-1.77,1.77h0v6.55h8.31v-8.32Z" transform="translate(-8.58 -9.58)"/><path class="cls-1" d="M135.05,117.66h4.78a1.77,1.77,0,0,0,1.77-1.77v-4.78a1.77,1.77,0,0,0-1.77-1.77h-6.55v8.32Z" transform="translate(-8.58 -9.58)"/><path class="cls-1" d="M156.46,117.66a1.76,1.76,0,0,0,1.76-1.77v1.77Z" transform="translate(-8.58 -9.58)"/><path class="cls-1" d="M160,109.34a1.77,1.77,0,0,0-1.77,1.77h0v6.55h8.32v-8.32Z" transform="translate(-8.58 -9.58)"/><rect class="cls-1" x="157.96" y="99.76" width="8.31" height="8.31"/><rect class="cls-1" x="166.27" y="99.76" width="8.31" height="8.31"/><path class="cls-1" d="M184.93,117.66h4.78a1.77,1.77,0,0,0,1.77-1.77v-4.78a1.77,1.77,0,0,0-1.77-1.77h-6.54v8.32Z" transform="translate(-8.58 -9.58)"/><path class="cls-1" d="M206.34,109.34h-4.78a1.77,1.77,0,0,0-1.77,1.77h0v4.78a1.77,1.77,0,0,0,1.77,1.77h6.55v-8.32Z" transform="translate(-8.58 -9.58)"/><path class="cls-1" d="M209.87,117.66h4.78a1.77,1.77,0,0,0,1.77-1.77v-4.78a1.77,1.77,0,0,0-1.77-1.77h-6.54v8.32Z" transform="translate(-8.58 -9.58)"/><path class="cls-1" d="M10.35,117.66a1.76,1.76,0,0,0-1.77,1.76h0V126h8.31v-8.31Z" transform="translate(-8.58 -9.58)"/><rect class="cls-1" x="8.31" y="108.08" width="8.31" height="8.31"/><rect class="cls-1" x="16.63" y="108.08" width="8.31" height="8.31"/><rect class="cls-1" x="24.94" y="108.08" width="8.31" height="8.31"/><path class="cls-1" d="M50.15,124.2A1.77,1.77,0,0,1,48.38,126H41.83v-8.31h8.32Z" transform="translate(-8.58 -9.58)"/><path class="cls-1" d="M51.91,117.66H50.15v1.76a1.76,1.76,0,0,1,1.76-1.76Z" transform="translate(-8.58 -9.58)"/><path class="cls-1" d="M66.78,119.42v-1.76H65A1.77,1.77,0,0,1,66.78,119.42Z" transform="translate(-8.58 -9.58)"/><path class="cls-1" d="M66.78,124.2A1.76,1.76,0,0,0,68.54,126h6.55v-8.31H66.78Z" transform="translate(-8.58 -9.58)"/><path class="cls-1" d="M76.86,126h4.78a1.76,1.76,0,0,0,1.76-1.77v-4.78a1.76,1.76,0,0,0-1.76-1.76H75.09V126Z" transform="translate(-8.58 -9.58)"/><path class="cls-1" d="M100,124.2v-4.78a1.76,1.76,0,0,0-1.77-1.76H93.48a1.76,1.76,0,0,0-1.76,1.76h0V126H100Z" transform="translate(-8.58 -9.58)"/><rect class="cls-1" x="99.76" y="108.08" width="8.31" height="8.31" rx="1.77"/><rect class="cls-1" x="116.39" y="108.08" width="8.31" height="8.31"/><path class="cls-1" d="M135.05,117.66h-1.77v1.76a1.76,1.76,0,0,1,1.77-1.76Z" transform="translate(-8.58 -9.58)"/><path class="cls-1" d="M148.14,117.66h-4.78a1.76,1.76,0,0,0-1.76,1.76h0v4.78a1.76,1.76,0,0,0,1.76,1.77h6.55v-8.31Z" transform="translate(-8.58 -9.58)"/><rect class="cls-1" x="141.33" y="108.08" width="8.31" height="8.31"/><rect class="cls-1" x="149.64" y="108.08" width="8.31" height="8.31"/><rect class="cls-1" x="157.96" y="108.08" width="8.31" height="8.31"/><rect class="cls-1" x="166.27" y="108.08" width="8.31" height="8.31"/><path class="cls-1" d="M184.93,117.66h-1.76v1.76a1.76,1.76,0,0,1,1.76-1.76Z" transform="translate(-8.58 -9.58)"/><rect class="cls-1" y="116.39" width="8.31" height="8.31"/><path class="cls-1" d="M18.66,126H16.89v1.77A1.77,1.77,0,0,1,18.66,126Z" transform="translate(-8.58 -9.58)"/><path class="cls-1" d="M25.21,127.74V126H23.44A1.77,1.77,0,0,1,25.21,127.74Z" transform="translate(-8.58 -9.58)"/><path class="cls-1" d="M25.21,132.52A1.76,1.76,0,0,0,27,134.28h4.78a1.76,1.76,0,0,0,1.77-1.76V126H25.21Z" transform="translate(-8.58 -9.58)"/><path class="cls-1" d="M35.29,126H33.52v1.77A1.77,1.77,0,0,1,35.29,126Z" transform="translate(-8.58 -9.58)"/><path class="cls-1" d="M56.69,126H51.91a1.76,1.76,0,0,0-1.76,1.77h0v4.78a1.76,1.76,0,0,0,1.76,1.76h6.55V126Z" transform="translate(-8.58 -9.58)"/><path class="cls-1" d="M60.23,134.28H65a1.77,1.77,0,0,0,1.77-1.76v-4.78A1.77,1.77,0,0,0,65,126H58.46v8.31Z" transform="translate(-8.58 -9.58)"/><rect class="cls-1" x="83.14" y="116.39" width="8.31" height="8.31"/><path class="cls-1" d="M123.2,134.28a1.76,1.76,0,0,0,1.77-1.76v1.76Z" transform="translate(-8.58 -9.58)"/><rect class="cls-1" x="116.39" y="116.39" width="8.31" height="8.31"/><path class="cls-1" d="M149.91,127.74V126h-1.77A1.77,1.77,0,0,1,149.91,127.74Z" transform="translate(-8.58 -9.58)"/><rect class="cls-1" x="141.33" y="116.39" width="8.31" height="8.31"/><path class="cls-1" d="M166.54,132.52a1.76,1.76,0,0,1-1.77,1.76h-6.55V126h8.32Z" transform="translate(-8.58 -9.58)"/><path class="cls-1" d="M168.31,126h-1.77v1.77a1.77,1.77,0,0,1,1.77-1.77Z" transform="translate(-8.58 -9.58)"/><path class="cls-1" d="M174.85,127.74V126h-1.76A1.76,1.76,0,0,1,174.85,127.74Z" transform="translate(-8.58 -9.58)"/><path class="cls-1" d="M174.85,132.52a1.76,1.76,0,0,0,1.77,1.76h4.78a1.77,1.77,0,0,0,1.77-1.76V126h-8.32Z" transform="translate(-8.58 -9.58)"/><path class="cls-1" d="M198,126h-4.78a1.77,1.77,0,0,0-1.77,1.77h0v4.78a1.76,1.76,0,0,0,1.77,1.76h6.54V126Z" transform="translate(-8.58 -9.58)"/><rect class="cls-1" x="191.21" y="116.39" width="8.31" height="8.31"/><path class="cls-1" d="M214.65,126a1.77,1.77,0,0,1,1.77,1.77v6.54h-8.31V126Z" transform="translate(-8.58 -9.58)"/><rect class="cls-1" y="124.7" width="8.31" height="8.31"/><path class="cls-1" d="M40.07,134.28H35.29a1.77,1.77,0,0,0-1.77,1.77h0v4.78a1.77,1.77,0,0,0,1.77,1.77h6.54v-8.32Z" transform="translate(-8.58 -9.58)"/><path class="cls-1" d="M43.6,142.6h4.78a1.77,1.77,0,0,0,1.77-1.77v-4.78a1.77,1.77,0,0,0-1.77-1.77H41.83v8.32Z" transform="translate(-8.58 -9.58)"/><path class="cls-1" d="M91.72,140.83a1.76,1.76,0,0,0,1.76,1.77h4.78a1.77,1.77,0,0,0,1.77-1.77v-6.55H91.72Z" transform="translate(-8.58 -9.58)"/><path class="cls-1" d="M110.11,134.28a1.77,1.77,0,0,0-1.77,1.77h0v6.55h8.32v-8.32Z" transform="translate(-8.58 -9.58)"/><rect class="cls-1" x="108.08" y="124.7" width="8.31" height="8.31"/><path class="cls-1" d="M133.28,140.83a1.76,1.76,0,0,1-1.76,1.77H125v-8.32h8.31Z" transform="translate(-8.58 -9.58)"/><path class="cls-1" d="M148.14,142.6a1.77,1.77,0,0,0,1.77-1.77v1.77Z" transform="translate(-8.58 -9.58)"/><rect class="cls-1" x="141.33" y="124.7" width="8.31" height="8.31"/><path class="cls-1" d="M160,134.28h-1.77v1.77a1.77,1.77,0,0,1,1.77-1.77Z" transform="translate(-8.58 -9.58)"/><path class="cls-1" d="M160,142.6a1.77,1.77,0,0,1-1.77-1.77v1.77Z" transform="translate(-8.58 -9.58)"/><path class="cls-1" d="M199.79,136.05v-1.77H198A1.76,1.76,0,0,1,199.79,136.05Z" transform="translate(-8.58 -9.58)"/><path class="cls-1" d="M199.79,140.83a1.77,1.77,0,0,0,1.77,1.77h6.55v-8.32h-8.32Z" transform="translate(-8.58 -9.58)"/><rect class="cls-1" x="199.53" y="124.7" width="8.31" height="8.31"/><path class="cls-1" d="M8.58,149.14a1.77,1.77,0,0,0,1.77,1.77h4.78a1.76,1.76,0,0,0,1.76-1.77V142.6H8.58Z" transform="translate(-8.58 -9.58)"/><rect class="cls-1" x="16.63" y="133.02" width="8.31" height="8.31" rx="1.77"/><path class="cls-1" d="M56.69,142.6H51.91a1.76,1.76,0,0,0-1.76,1.76h0v4.78a1.76,1.76,0,0,0,1.76,1.77h6.55V142.6Z" transform="translate(-8.58 -9.58)"/><path class="cls-1" d="M60.23,150.91H65a1.77,1.77,0,0,0,1.77-1.77v-4.78A1.77,1.77,0,0,0,65,142.6H58.46v8.31Z" transform="translate(-8.58 -9.58)"/><path class="cls-1" d="M108.34,149.14a1.77,1.77,0,0,0,1.77,1.77h6.55V142.6h-8.32Z" transform="translate(-8.58 -9.58)"/><path class="cls-1" d="M125,149.14a1.77,1.77,0,0,1-1.77,1.77h-6.54V142.6H125Z" transform="translate(-8.58 -9.58)"/><path class="cls-1" d="M126.74,142.6H125v1.76a1.76,1.76,0,0,1,1.77-1.76Z" transform="translate(-8.58 -9.58)"/><path class="cls-1" d="M139.83,142.6h-4.78a1.76,1.76,0,0,0-1.77,1.76h0v4.78a1.77,1.77,0,0,0,1.77,1.77h6.55V142.6Z" transform="translate(-8.58 -9.58)"/><rect class="cls-1" x="133.02" y="133.02" width="8.31" height="8.31"/><rect class="cls-1" x="141.33" y="133.02" width="8.31" height="8.31"/><rect class="cls-1" x="149.64" y="133.02" width="8.31" height="8.31"/><rect class="cls-1" x="157.96" y="133.02" width="8.31" height="8.31"/><rect class="cls-1" x="166.27" y="133.02" width="8.31" height="8.31"/><path class="cls-1" d="M184.93,150.91h4.78a1.77,1.77,0,0,0,1.77-1.77v-4.78a1.76,1.76,0,0,0-1.77-1.76h-6.54v8.31Z" transform="translate(-8.58 -9.58)"/><path class="cls-1" d="M208.11,144.36V142.6h-1.77A1.76,1.76,0,0,1,208.11,144.36Z" transform="translate(-8.58 -9.58)"/><rect class="cls-1" x="199.53" y="133.02" width="8.31" height="8.31"/><path class="cls-1" d="M76.86,150.91a1.77,1.77,0,0,0-1.77,1.77h0v6.54H83.4v-8.31Z" transform="translate(-8.58 -9.58)"/><path class="cls-1" d="M90,150.91a1.77,1.77,0,0,1,1.77,1.77v6.54H83.4v-8.31Z" transform="translate(-8.58 -9.58)"/><path class="cls-1" d="M93.48,159.22a1.76,1.76,0,0,1-1.76-1.76v1.76Z" transform="translate(-8.58 -9.58)"/><path class="cls-1" d="M141.6,152.68v-1.77h-1.77A1.77,1.77,0,0,1,141.6,152.68Z" transform="translate(-8.58 -9.58)"/><rect class="cls-1" x="133.02" y="141.33" width="8.31" height="8.31"/><path class="cls-1" d="M151.68,150.91h-1.77v1.77a1.77,1.77,0,0,1,1.77-1.77Z" transform="translate(-8.58 -9.58)"/><path class="cls-1" d="M174.85,152.68v-1.77h-1.76A1.76,1.76,0,0,1,174.85,152.68Z" transform="translate(-8.58 -9.58)"/><rect class="cls-1" x="166.27" y="141.33" width="8.31" height="8.31"/><path class="cls-1" d="M184.93,150.91h-1.76v1.77a1.76,1.76,0,0,1,1.76-1.77Z" transform="translate(-8.58 -9.58)"/><path class="cls-1" d="M206.34,159.22a1.76,1.76,0,0,0,1.77-1.76v1.76Z" transform="translate(-8.58 -9.58)"/><rect class="cls-1" x="199.53" y="141.33" width="8.31" height="8.31"/><path class="cls-1" d="M75.09,165.77a1.77,1.77,0,0,0,1.77,1.77H83.4v-8.32H75.09Z" transform="translate(-8.58 -9.58)"/><rect class="cls-1" x="74.82" y="149.64" width="8.31" height="8.31"/><rect class="cls-1" x="83.14" y="149.64" width="8.31" height="8.31"/><rect class="cls-1" x="91.45" y="149.64" width="8.31" height="8.31"/><rect class="cls-1" x="99.76" y="149.64" width="8.31" height="8.31"/><path class="cls-1" d="M118.42,167.54h4.78a1.77,1.77,0,0,0,1.77-1.77V161a1.77,1.77,0,0,0-1.77-1.77h-6.54v8.32Z" transform="translate(-8.58 -9.58)"/><rect class="cls-1" x="133.02" y="149.64" width="8.31" height="8.31"/><rect class="cls-1" x="149.64" y="149.64" width="8.31" height="8.31" rx="1.77"/><rect class="cls-1" x="166.27" y="149.64" width="8.31" height="8.31"/><path class="cls-1" d="M184.93,167.54a1.76,1.76,0,0,1-1.76-1.77v1.77Z" transform="translate(-8.58 -9.58)"/><path class="cls-1" d="M198,159.22h-4.78a1.77,1.77,0,0,0-1.77,1.77h0v4.78a1.77,1.77,0,0,0,1.77,1.77h6.54v-8.32Z" transform="translate(-8.58 -9.58)"/><rect class="cls-1" x="191.21" y="149.64" width="8.31" height="8.31"/><path class="cls-1" d="M216.42,165.77a1.77,1.77,0,0,1-1.77,1.77h-6.54v-8.32h8.31Z" transform="translate(-8.58 -9.58)"/><path class="cls-1" d="M100,169.31v-1.77H98.26A1.77,1.77,0,0,1,100,169.31Z" transform="translate(-8.58 -9.58)"/><path class="cls-1" d="M98.26,175.85a1.76,1.76,0,0,0,1.77-1.76v1.76Z" transform="translate(-8.58 -9.58)"/><rect class="cls-1" x="91.45" y="157.96" width="8.31" height="8.31"/><path class="cls-1" d="M110.11,167.54h-1.77v1.77a1.77,1.77,0,0,1,1.77-1.77Z" transform="translate(-8.58 -9.58)"/><path class="cls-1" d="M110.11,175.85a1.76,1.76,0,0,1-1.77-1.76v1.76Z" transform="translate(-8.58 -9.58)"/><rect class="cls-1" x="116.39" y="157.96" width="8.31" height="8.31" rx="1.77"/><rect class="cls-1" x="133.02" y="157.96" width="8.31" height="8.31"/><path class="cls-1" d="M151.68,175.85a1.76,1.76,0,0,1-1.77-1.76v1.76Z" transform="translate(-8.58 -9.58)"/><path class="cls-1" d="M173.09,175.85a1.76,1.76,0,0,0,1.76-1.76v1.76Z" transform="translate(-8.58 -9.58)"/><rect class="cls-1" x="166.27" y="157.96" width="8.31" height="8.31"/><path class="cls-1" d="M189.71,167.54a1.77,1.77,0,0,1,1.77,1.77v6.54h-8.31v-8.31Z" transform="translate(-8.58 -9.58)"/><path class="cls-1" d="M83.4,182.4v-4.78a1.76,1.76,0,0,0-1.76-1.77H76.86a1.77,1.77,0,0,0-1.77,1.77h0v6.55H83.4Z" transform="translate(-8.58 -9.58)"/><path class="cls-1" d="M90,184.17a1.77,1.77,0,0,0,1.77-1.77v1.77Z" transform="translate(-8.58 -9.58)"/><path class="cls-1" d="M85.17,184.17a1.77,1.77,0,0,1-1.77-1.77v1.77Z" transform="translate(-8.58 -9.58)"/><path class="cls-1" d="M93.48,175.85a1.76,1.76,0,0,0-1.76,1.77h0v6.55H100v-8.32Z" transform="translate(-8.58 -9.58)"/><rect class="cls-1" x="91.45" y="166.27" width="8.31" height="8.31"/><path class="cls-1" d="M114.89,175.85a1.77,1.77,0,0,1,1.77,1.77v6.55h-8.32v-8.32Z" transform="translate(-8.58 -9.58)"/><path class="cls-1" d="M139.83,184.17a1.77,1.77,0,0,0,1.77-1.77v1.77Z" transform="translate(-8.58 -9.58)"/><rect class="cls-1" x="133.02" y="166.27" width="8.31" height="8.31"/><rect class="cls-1" x="141.33" y="166.27" width="8.31" height="8.31"/><rect class="cls-1" x="149.64" y="166.27" width="8.31" height="8.31"/><rect class="cls-1" x="157.96" y="166.27" width="8.31" height="8.31"/><rect class="cls-1" x="166.27" y="166.27" width="8.31" height="8.31"/><path class="cls-1" d="M191.48,182.4a1.77,1.77,0,0,1-1.77,1.77h-6.54v-8.32h8.31Z" transform="translate(-8.58 -9.58)"/><rect class="cls-1" x="66.51" y="174.59" width="8.31" height="8.31"/><rect class="cls-1" x="74.82" y="174.59" width="8.31" height="8.31"/><path class="cls-1" d="M100,190.71a1.77,1.77,0,0,1-1.77,1.77H91.72v-8.31H100Z" transform="translate(-8.58 -9.58)"/><path class="cls-1" d="M101.8,184.17H100v1.76a1.76,1.76,0,0,1,1.77-1.76Z" transform="translate(-8.58 -9.58)"/><path class="cls-1" d="M108.34,185.93v-1.76h-1.76A1.76,1.76,0,0,1,108.34,185.93Z" transform="translate(-8.58 -9.58)"/><rect class="cls-1" x="99.76" y="174.59" width="8.31" height="8.31"/><path class="cls-1" d="M118.42,192.48a1.76,1.76,0,0,1-1.76-1.77v1.77Z" transform="translate(-8.58 -9.58)"/><path class="cls-1" d="M131.52,184.17h-4.78a1.76,1.76,0,0,0-1.77,1.76h0v4.78a1.77,1.77,0,0,0,1.77,1.77h6.54v-8.31Z" transform="translate(-8.58 -9.58)"/><rect class="cls-1" x="124.7" y="174.59" width="8.31" height="8.31"/><path class="cls-1" d="M149.91,190.71a1.77,1.77,0,0,1-1.77,1.77H141.6v-8.31h8.31Z" transform="translate(-8.58 -9.58)"/><path class="cls-1" d="M151.68,184.17h-1.77v1.76a1.76,1.76,0,0,1,1.77-1.76Z" transform="translate(-8.58 -9.58)"/><path class="cls-1" d="M158.22,185.93v-1.76h-1.76A1.76,1.76,0,0,1,158.22,185.93Z" transform="translate(-8.58 -9.58)"/><path class="cls-1" d="M158.22,190.71a1.77,1.77,0,0,0,1.77,1.77h4.78a1.77,1.77,0,0,0,1.77-1.77v-6.54h-8.32Z" transform="translate(-8.58 -9.58)"/><path class="cls-1" d="M168.31,184.17h-1.77v1.76a1.76,1.76,0,0,1,1.77-1.76Z" transform="translate(-8.58 -9.58)"/><path class="cls-1" d="M174.85,185.93v-1.76h-1.76A1.76,1.76,0,0,1,174.85,185.93Z" transform="translate(-8.58 -9.58)"/><rect class="cls-1" x="166.27" y="174.59" width="8.31" height="8.31"/><path class="cls-1" d="M184.93,184.17h-1.76v1.76a1.76,1.76,0,0,1,1.76-1.76Z" transform="translate(-8.58 -9.58)"/><path class="cls-1" d="M206.34,184.17h-4.78a1.76,1.76,0,0,0-1.77,1.76h0v4.78a1.77,1.77,0,0,0,1.77,1.77h6.55v-8.31Z" transform="translate(-8.58 -9.58)"/><path class="cls-1" d="M214.65,184.17a1.76,1.76,0,0,1,1.77,1.76v6.55h-8.31v-8.31Z" transform="translate(-8.58 -9.58)"/><rect class="cls-1" x="66.51" y="182.9" width="8.31" height="8.31"/><path class="cls-1" d="M91.72,199A1.76,1.76,0,0,1,90,200.79H83.4v-8.31h8.32Z" transform="translate(-8.58 -9.58)"/><path class="cls-1" d="M93.48,192.48H91.72v1.77a1.76,1.76,0,0,1,1.76-1.77Z" transform="translate(-8.58 -9.58)"/><rect class="cls-1" x="99.76" y="182.9" width="8.31" height="8.31"/><path class="cls-1" d="M118.42,200.79h4.78A1.76,1.76,0,0,0,125,199v-4.78a1.77,1.77,0,0,0-1.77-1.77h-6.54v8.31Z" transform="translate(-8.58 -9.58)"/><path class="cls-1" d="M173.09,200.79a1.76,1.76,0,0,0,1.76-1.76v1.76Z" transform="translate(-8.58 -9.58)"/><rect class="cls-1" x="166.27" y="182.9" width="8.31" height="8.31"/><path class="cls-1" d="M184.93,200.79a1.76,1.76,0,0,1-1.76-1.76v1.76Z" transform="translate(-8.58 -9.58)"/><rect class="cls-1" x="182.9" y="182.9" width="8.31" height="8.31" rx="1.77"/><path class="cls-1" d="M208.11,194.25v-1.77h-1.77A1.77,1.77,0,0,1,208.11,194.25Z" transform="translate(-8.58 -9.58)"/><path class="cls-1" d="M208.11,199a1.76,1.76,0,0,0,1.76,1.76h4.78a1.76,1.76,0,0,0,1.77-1.76v-6.55h-8.31Z" transform="translate(-8.58 -9.58)"/><rect class="cls-1" x="66.51" y="191.21" width="8.31" height="8.31"/><path class="cls-1" d="M85.17,200.79H83.4v1.77a1.77,1.77,0,0,1,1.77-1.77Z" transform="translate(-8.58 -9.58)"/><rect class="cls-1" x="99.76" y="191.21" width="8.31" height="8.31"/><path class="cls-1" d="M118.42,200.79h-1.76v1.77a1.76,1.76,0,0,1,1.76-1.77Z" transform="translate(-8.58 -9.58)"/><rect class="cls-1" x="116.39" y="191.21" width="8.31" height="8.31" rx="1.77"/><path class="cls-1" d="M148.14,200.79h-4.78a1.76,1.76,0,0,0-1.76,1.77h0v4.78a1.76,1.76,0,0,0,1.76,1.77h6.55v-8.32Z" transform="translate(-8.58 -9.58)"/><rect class="cls-1" x="141.33" y="191.21" width="8.31" height="8.31"/><rect class="cls-1" x="149.64" y="191.21" width="8.31" height="8.31"/><rect class="cls-1" x="157.96" y="191.21" width="8.31" height="8.31"/><rect class="cls-1" x="166.27" y="191.21" width="8.31" height="8.31"/><path class="cls-1" d="M184.93,209.11h4.78a1.77,1.77,0,0,0,1.77-1.77v-4.78a1.77,1.77,0,0,0-1.77-1.77h-6.54v8.32Z" transform="translate(-8.58 -9.58)"/><path class="cls-1" d="M198,209.11a1.76,1.76,0,0,0,1.76-1.77v1.77Z" transform="translate(-8.58 -9.58)"/><path class="cls-1" d="M208.11,207.34v-4.78a1.77,1.77,0,0,0-1.77-1.77h-4.78a1.77,1.77,0,0,0-1.77,1.77h0v6.55h8.32Z" transform="translate(-8.58 -9.58)"/><path class="cls-1" d="M209.87,209.11a1.76,1.76,0,0,1-1.76-1.77v1.77Z" transform="translate(-8.58 -9.58)"/><path class="cls-1" d="M75.09,215.65a1.77,1.77,0,0,0,1.77,1.77h4.78a1.76,1.76,0,0,0,1.76-1.77v-6.54H75.09Z" transform="translate(-8.58 -9.58)"/><rect class="cls-1" x="83.14" y="199.53" width="8.31" height="8.31" rx="1.77"/><path class="cls-1" d="M108.34,215.65a1.77,1.77,0,0,0,1.77,1.77h4.78a1.77,1.77,0,0,0,1.77-1.77v-6.54h-8.32Z" transform="translate(-8.58 -9.58)"/><rect class="cls-1" x="124.7" y="199.53" width="8.31" height="8.31" rx="1.77"/><path class="cls-1" d="M198,209.11h-4.78a1.76,1.76,0,0,0-1.77,1.76h0v4.78a1.77,1.77,0,0,0,1.77,1.77h6.54v-8.31Z" transform="translate(-8.58 -9.58)"/><rect class="cls-1" x="191.21" y="199.53" width="8.31" height="8.31"/><path class="cls-1" d="M209.87,217.42h4.78a1.77,1.77,0,0,0,1.77-1.77v-4.78a1.76,1.76,0,0,0-1.77-1.76h-6.54v8.31Z" transform="translate(-8.58 -9.58)"/><path class="cls-1" d="M66.86,67.78H8.66V29A19.43,19.43,0,0,1,28,9.58H66.86ZM17,59.46H58.54V17.89H28.07A11.1,11.1,0,0,0,17,29Z" transform="translate(-8.58 -9.58)"/><path class="cls-1" d="M50.15,26.21H32.82a7.63,7.63,0,0,0-7.61,7.61V51.15H50.15V26.21Z" transform="translate(-8.58 -9.58)"/><path class="cls-1" d="M163.8,62.2a18.91,18.91,0,0,1-5.58-13.42V28.58a19.05,19.05,0,0,1,19-19h39.2v39.2a19.05,19.05,0,0,1-19,19h-20.2A19,19,0,0,1,163.8,62.2Zm14.31-44.31a11.59,11.59,0,0,0-11.57,11.58V47.89a11.58,11.58,0,0,0,11.57,11.57h18.42a11.59,11.59,0,0,0,11.58-11.57v-30Z" transform="translate(-8.58 -9.58)"/><path class="cls-1" d="M174.85,33.82a7.64,7.64,0,0,1,7.62-7.61h17.32V43.53a7.64,7.64,0,0,1-7.61,7.62h-9.71a7.64,7.64,0,0,1-7.62-7.62V33.82Z" transform="translate(-8.58 -9.58)"/><path class="cls-1" d="M61.2,164.8a18.91,18.91,0,0,1,5.58,13.42v20.2a19.05,19.05,0,0,1-19,19H8.58v-39.2a19.05,19.05,0,0,1,19-19h20.2A18.91,18.91,0,0,1,61.2,164.8ZM46.89,209.11a11.59,11.59,0,0,0,11.57-11.58V179.11a11.58,11.58,0,0,0-11.57-11.57H28.47a11.59,11.59,0,0,0-11.58,11.57v30Z" transform="translate(-8.58 -9.58)"/><path class="cls-1" d="M50.15,193.18a7.64,7.64,0,0,1-7.62,7.61H25.21V183.47a7.64,7.64,0,0,1,7.61-7.62h9.71a7.64,7.64,0,0,1,7.62,7.62v9.71Z" transform="translate(-8.58 -9.58)"/></svg>